<?xml version="1.0" encoding="UTF-8" standalone="no"?>
<!-- Uploaded to: SVG Repo, www.svgrepo.com, Generator: SVG Repo Mixer Tools -->

<svg
   width="800px"
   height="800px"
   viewBox="0 0 48 48"
   id="Layer_2"
   data-name="Layer 2"
   version="1.1"
   sodipodi:docname="github.svg"
   inkscape:version="1.3 (0e150ed6c4, 2023-07-21)"
   xmlns:inkscape="http://www.inkscape.org/namespaces/inkscape"
   xmlns:sodipodi="http://sodipodi.sourceforge.net/DTD/sodipodi-0.dtd"
   xmlns="http://www.w3.org/2000/svg"
   xmlns:svg="http://www.w3.org/2000/svg">
  <sodipodi:namedview
     id="namedview1"
     pagecolor="#000000"
     bordercolor="#000000"
     borderopacity="0"
     inkscape:showpageshadow="2"
     inkscape:pageopacity="0.0"
     inkscape:pagecheckerboard="0"
     inkscape:deskcolor="#d1d1d1"
     inkscape:zoom="0.97125"
     inkscape:cx="400"
     inkscape:cy="400"
     inkscape:window-width="1920"
     inkscape:window-height="991"
     inkscape:window-x="-9"
     inkscape:window-y="-9"
     inkscape:window-maximized="1"
     inkscape:current-layer="Layer_2"
     showborder="true" />
  <defs
     id="defs1">
    <style
       id="style1">.cls-1{fill:none;stroke:#000000;stroke-linecap:round;stroke-linejoin:round;fill-rule:evenodd;}</style>
  </defs>
  <path
     class="cls-1"
     d="M24,2.5a21.5,21.5,0,0,0-6.8,41.9c1.08.2,1.47-.46,1.47-1s0-1.86,0-3.65c-6,1.3-7.24-2.88-7.24-2.88A5.7,5.7,0,0,0,9,33.68c-1.95-1.33.15-1.31.15-1.31a4.52,4.52,0,0,1,3.29,2.22c1.92,3.29,5,2.34,6.26,1.79a4.61,4.61,0,0,1,1.37-2.88c-4.78-.54-9.8-2.38-9.8-10.62a8.29,8.29,0,0,1,2.22-5.77,7.68,7.68,0,0,1,.21-5.69s1.8-.58,5.91,2.2a20.46,20.46,0,0,1,10.76,0c4.11-2.78,5.91-2.2,5.91-2.2a7.74,7.74,0,0,1,.21,5.69,8.28,8.28,0,0,1,2.21,5.77c0,8.26-5,10.07-9.81,10.61a5.12,5.12,0,0,1,1.46,4c0,2.87,0,5.19,0,5.9s.39,1.24,1.48,1A21.5,21.5,0,0,0,24,2.5"
     id="path1"
     style="stroke:#ffffff;stroke-opacity:1;stroke-width:3.3;stroke-dasharray:none" />
</svg>
